<svg width="20" height="19" viewBox="0 0 20 19" fill="none" xmlns="http://www.w3.org/2000/svg">
<path d="M18.6296 16.8005C17.4479 14.7641 15.6268 13.3038 13.5015 12.6116C14.5528 11.9878 15.3695 11.0373 15.8264 9.90596C16.2832 8.77467 16.3548 7.52517 16.0303 6.34936C15.7058 5.17354 15.003 4.13643 14.0299 3.39728C13.0568 2.65813 11.8672 2.25781 10.6438 2.25781C9.42037 2.25781 8.23078 2.65813 7.25769 3.39728C6.2846 4.13643 5.58182 5.17354 5.25729 6.34936C4.93276 7.52517 5.00441 8.77467 5.46124 9.90596C5.91807 11.0373 6.73482 11.9878 7.78607 12.6116C5.66082 13.3031 3.83972 14.7633 2.65799 16.8005C2.61466 16.871 2.58591 16.9494 2.57346 17.031C2.561 17.1127 2.56508 17.1961 2.58546 17.2762C2.60585 17.3563 2.64211 17.4315 2.69213 17.4974C2.74214 17.5632 2.80489 17.6185 2.87667 17.6598C2.94845 17.7011 3.0278 17.7277 3.11005 17.738C3.1923 17.7482 3.27578 17.742 3.35557 17.7196C3.43535 17.6971 3.50982 17.659 3.57458 17.6075C3.63935 17.5559 3.69309 17.4919 3.73265 17.4193C5.19449 14.901 7.77831 13.3974 10.6438 13.3974C13.5093 13.3974 16.0931 14.901 17.5549 17.4193C17.5945 17.4919 17.6482 17.5559 17.713 17.6075C17.7778 17.659 17.8522 17.6971 17.932 17.7196C18.0118 17.742 18.0953 17.7482 18.1775 17.738C18.2598 17.7277 18.3391 17.7011 18.4109 17.6598C18.4827 17.6185 18.5455 17.5632 18.5955 17.4974C18.6455 17.4315 18.6817 17.3563 18.7021 17.2762C18.7225 17.1961 18.7266 17.1127 18.7141 17.031C18.7017 16.9494 18.6729 16.871 18.6296 16.8005ZM6.29863 7.82867C6.29863 6.97203 6.55347 6.13462 7.03092 5.42235C7.50837 4.71008 8.187 4.15494 8.98097 3.82711C9.77495 3.49929 10.6486 3.41352 11.4915 3.58064C12.3344 3.74776 13.1086 4.16027 13.7163 4.76601C14.324 5.37175 14.7378 6.1435 14.9055 6.98368C15.0731 7.82386 14.9871 8.69473 14.6582 9.48616C14.3293 10.2776 13.7724 10.954 13.0578 11.43C12.3433 11.9059 11.5032 12.1599 10.6438 12.1599C9.49176 12.1587 8.38727 11.702 7.57266 10.89C6.75805 10.078 6.29986 8.97701 6.29863 7.82867Z" fill="#545454"/>
</svg>
