<svg width="19" height="18" viewBox="0 0 19 18" fill="none" xmlns="http://www.w3.org/2000/svg">
<path d="M1.64557 3.64286H18L15.4177 12.2143H4.22785L1.64557 3.64286ZM1.64557 3.64286L1 1.5M7.664 7.92857H9.38552M9.38552 7.92857H11.107M9.38552 7.92857V6.21429M9.38552 7.92857V9.64286M8.53165 15.2143C8.53165 15.5553 8.39562 15.8823 8.15348 16.1234C7.91134 16.3645 7.58294 16.5 7.24051 16.5C6.89807 16.5 6.56967 16.3645 6.32753 16.1234C6.0854 15.8823 5.94937 15.5553 5.94937 15.2143M13.6962 15.2143C13.6962 15.5553 13.5602 15.8823 13.318 16.1234C13.0759 16.3645 12.7475 16.5 12.4051 16.5C12.0626 16.5 11.7342 16.3645 11.4921 16.1234C11.25 15.8823 11.1139 15.5553 11.1139 15.2143" stroke="black" stroke-width="1.5" stroke-linecap="round" stroke-linejoin="round"/>
</svg>
