<svg width="19" height="17" viewBox="0 0 19 17" fill="none" xmlns="http://www.w3.org/2000/svg">
<path d="M1.64557 2.99637H18L15.4177 11.5678H4.22785L1.64557 2.99637ZM1.64557 2.99637L1 0.853516M7.664 7.28209H9.38552M9.38552 7.28209H11.107M9.38552 7.28209V5.5678M9.38552 7.28209V8.99637M8.53165 14.5678C8.53165 14.9088 8.39562 15.2358 8.15348 15.4769C7.91134 15.7181 7.58294 15.8535 7.24051 15.8535C6.89807 15.8535 6.56967 15.7181 6.32753 15.4769C6.0854 15.2358 5.94937 14.9088 5.94937 14.5678M13.6962 14.5678C13.6962 14.9088 13.5602 15.2358 13.318 15.4769C13.0759 15.7181 12.7475 15.8535 12.4051 15.8535C12.0626 15.8535 11.7342 15.7181 11.4921 15.4769C11.25 15.2358 11.1139 14.9088 11.1139 14.5678" stroke="black" stroke-width="1.5" stroke-linecap="round" stroke-linejoin="round"/>
</svg>
