<svg width="50" height="42" viewBox="0 0 50 42" fill="none" xmlns="http://www.w3.org/2000/svg">
<path d="M49.5 13.5625C49.5 28.875 26.7959 41.2694 25.8291 41.7812C25.5742 41.9183 25.2894 41.9901 25 41.9901C24.7106 41.9901 24.4258 41.9183 24.1709 41.7812C23.2041 41.2694 0.5 28.875 0.5 13.5625C0.504053 9.96675 1.93426 6.51942 4.47684 3.97684C7.01942 1.43426 10.4667 0.00405286 14.0625 0C18.5797 0 22.5347 1.9425 25 5.22594C27.4653 1.9425 31.4203 0 35.9375 0C39.5333 0.00405286 42.9806 1.43426 45.5232 3.97684C48.0657 6.51942 49.4959 9.96675 49.5 13.5625Z" fill="#819A69"/>
</svg>
