<svg width="31" height="27" viewBox="0 0 31 27" fill="none" xmlns="http://www.w3.org/2000/svg">
<path fill-rule="evenodd" clip-rule="evenodd" d="M15.5177 4.02393L13.9116 2.41823C13.1588 1.6555 12.2625 1.04918 11.2744 0.634159C10.2863 0.219142 9.22576 0.00363526 8.15397 4.55959e-05C7.08217 -0.00354407 6.02026 0.204855 5.02935 0.613243C4.03845 1.02163 3.13815 1.62194 2.38027 2.37961C1.62239 3.13728 1.02191 4.03734 0.613413 5.02796C0.204911 6.01859 -0.00354505 7.08022 4.56085e-05 8.15171C0.00363626 9.22321 0.219203 10.2834 0.634334 11.2713C1.04947 12.2592 1.65596 13.1552 2.4189 13.9077L15.4793 26.9645L15.4823 26.9616L15.5207 27L28.5811 13.9432C29.344 13.1906 29.9505 12.2946 30.3657 11.3067C30.7808 10.3189 30.9964 9.25867 31 8.18717C31.0035 7.11567 30.7951 6.05404 30.3866 5.06342C29.9781 4.07279 29.3776 3.17273 28.6197 2.41506C27.8619 1.65739 26.9615 1.05708 25.9706 0.648695C24.9797 0.240307 23.9178 0.0319082 22.846 0.0354978C21.7742 0.0390875 20.7137 0.254595 19.7256 0.669611C18.7375 1.08463 17.8412 1.69095 17.0884 2.45368L15.5177 4.02393ZM15.4823 22.7841L22.7757 15.4913L24.9182 13.4232H24.9211L26.4918 11.8545C27.4617 10.8848 28.0066 9.56971 28.0066 8.19844C28.0066 6.82717 27.4617 5.51205 26.4918 4.54242C25.5219 3.57278 24.2064 3.02804 22.8348 3.02804C21.4631 3.02804 20.1476 3.57278 19.1777 4.54242L15.5192 8.20139L15.5089 8.19105L11.8223 4.50844C10.8524 3.5388 9.5369 2.99407 8.16525 2.99407C6.79359 2.99407 5.47812 3.5388 4.50821 4.50844C3.53831 5.47808 2.99342 6.79319 2.99342 8.16446C2.99342 9.53574 3.53831 10.8509 4.50821 11.8205L8.26129 15.5725L8.26277 15.5681L15.4823 22.7856V22.7841Z" fill="#545454"/>
</svg>
