<svg width="33" height="33" viewBox="0 0 33 33" fill="none" xmlns="http://www.w3.org/2000/svg">
<path d="M22.5154 4.46854C24.1095 4.4733 25.6369 5.10866 26.7641 6.23586C27.8913 7.36305 28.5267 8.8905 28.5315 10.4846V22.5154C28.5267 24.1095 27.8913 25.6369 26.7641 26.7641C25.6369 27.8913 24.1095 28.5267 22.5154 28.5315H10.4846C8.8905 28.5267 7.36305 27.8913 6.23586 26.7641C5.10866 25.6369 4.4733 24.1095 4.46854 22.5154V10.4846C4.4733 8.8905 5.10866 7.36305 6.23586 6.23586C7.36305 5.10866 8.8905 4.4733 10.4846 4.46854H22.5154ZM22.5154 2.0625H10.4846C5.85234 2.0625 2.0625 5.85234 2.0625 10.4846V22.5154C2.0625 27.1477 5.85234 30.9375 10.4846 30.9375H22.5154C27.1477 30.9375 30.9375 27.1477 30.9375 22.5154V10.4846C30.9375 5.85234 27.1477 2.0625 22.5154 2.0625Z" fill="#797979"/>
<path d="M24.3201 10.4844C23.9632 10.4844 23.6143 10.3785 23.3175 10.1802C23.0207 9.98193 22.7894 9.70008 22.6528 9.37031C22.5162 9.04055 22.4805 8.67769 22.5501 8.32761C22.6197 7.97754 22.7916 7.65597 23.044 7.40358C23.2964 7.15119 23.6179 6.97931 23.968 6.90968C24.3181 6.84004 24.681 6.87578 25.0107 7.01237C25.3405 7.14897 25.6223 7.38028 25.8206 7.67706C26.0189 7.97384 26.1248 8.32275 26.1248 8.67969C26.1253 8.91683 26.079 9.15173 25.9885 9.37091C25.8979 9.5901 25.765 9.78925 25.5973 9.95693C25.4297 10.1246 25.2305 10.2575 25.0113 10.348C24.7921 10.4386 24.5572 10.4849 24.3201 10.4844ZM16.5 11.6871C17.4519 11.6871 18.3824 11.9693 19.1738 12.4982C19.9653 13.027 20.5821 13.7786 20.9464 14.658C21.3106 15.5374 21.4059 16.5051 21.2202 17.4387C21.0345 18.3723 20.5762 19.2298 19.9031 19.9029C19.23 20.576 18.3725 21.0343 17.4389 21.22C16.5053 21.4057 15.5377 21.3104 14.6583 20.9462C13.7788 20.5819 13.0272 19.965 12.4984 19.1736C11.9695 18.3821 11.6873 17.4517 11.6873 16.4998C11.6887 15.2238 12.1961 14.0005 13.0984 13.0982C14.0007 12.1959 15.224 11.6884 16.5 11.6871ZM16.5 9.28104C15.0723 9.28104 13.6766 9.70441 12.4895 10.4976C11.3024 11.2908 10.3771 12.4182 9.83075 13.7373C9.28438 15.0563 9.14142 16.5078 9.41996 17.9081C9.6985 19.3084 10.386 20.5947 11.3956 21.6042C12.4051 22.6138 13.6914 23.3013 15.0917 23.5798C16.492 23.8584 17.9434 23.7154 19.2625 23.169C20.5816 22.6227 21.709 21.6974 22.5022 20.5103C23.2954 19.3232 23.7188 17.9275 23.7188 16.4998C23.7188 14.5853 22.9582 12.7491 21.6044 11.3954C20.2507 10.0416 18.4145 9.28104 16.5 9.28104Z" fill="#797979"/>
</svg>
