<svg width="33" height="33" viewBox="0 0 33 33" fill="none" xmlns="http://www.w3.org/2000/svg">
<g clip-path="url(#clip0_1_257)">
<g filter="url(#filter0_d_1_257)">
<path d="M31.9688 7.05763C30.8082 7.56188 29.5804 7.89409 28.3239 8.04376C29.6444 7.27057 30.6374 6.04221 31.1167 4.58907C29.8683 5.31906 28.5048 5.83126 27.0845 6.10372C26.4864 5.47693 25.7672 4.97831 24.9704 4.63815C24.1736 4.29799 23.316 4.12341 22.4497 4.12501C18.9421 4.12501 16.1036 6.92228 16.1036 10.3705C16.1011 10.8502 16.1561 11.3284 16.2673 11.7949C13.7522 11.677 11.2893 11.0354 9.03632 9.91113C6.78333 8.78686 4.78982 7.20468 3.18334 5.26583C2.61975 6.21595 2.32169 7.3 2.32031 8.4047C2.32031 10.5703 3.45018 12.4846 5.15625 13.6061C4.14545 13.5821 3.15536 13.3145 2.27004 12.8262V12.9035C2.27004 15.9328 4.46145 18.4529 7.36184 19.0266C6.81642 19.172 6.25438 19.2456 5.68992 19.2457C5.2894 19.2464 4.88978 19.2076 4.49689 19.1297C5.3032 21.6111 7.64994 23.4158 10.4298 23.4674C8.17097 25.2082 5.3977 26.1491 2.5459 26.1422C2.0397 26.1414 1.53396 26.1113 1.03125 26.052C3.9324 27.9045 7.30476 28.8844 10.7469 28.875C22.4361 28.875 28.8221 19.3553 28.8221 11.0988C28.8221 10.8281 28.8151 10.5574 28.8022 10.2932C30.0417 9.41149 31.114 8.31582 31.9688 7.05763Z" fill="#797979"/>
</g>
</g>
<defs>
<filter id="filter0_d_1_257" x="-2.96875" y="4.125" width="38.9375" height="32.75" filterUnits="userSpaceOnUse" color-interpolation-filters="sRGB">
<feFlood flood-opacity="0" result="BackgroundImageFix"/>
<feColorMatrix in="SourceAlpha" type="matrix" values="0 0 0 0 0 0 0 0 0 0 0 0 0 0 0 0 0 0 127 0" result="hardAlpha"/>
<feOffset dy="4"/>
<feGaussianBlur stdDeviation="2"/>
<feComposite in2="hardAlpha" operator="out"/>
<feColorMatrix type="matrix" values="0 0 0 0 0 0 0 0 0 0 0 0 0 0 0 0 0 0 0.25 0"/>
<feBlend mode="normal" in2="BackgroundImageFix" result="effect1_dropShadow_1_257"/>
<feBlend mode="normal" in="SourceGraphic" in2="effect1_dropShadow_1_257" result="shape"/>
</filter>
<clipPath id="clip0_1_257">
<rect width="33" height="33" fill="white"/>
</clipPath>
</defs>
</svg>
