<svg width="44" height="44" viewBox="0 0 44 44" fill="none" xmlns="http://www.w3.org/2000/svg">
<path d="M22.0014 12.1986C23.4858 13.3637 24.6857 14.8513 25.5102 16.5487C26.3348 18.2461 26.7624 20.1088 26.7607 21.9959C26.7622 23.8831 26.3343 25.746 25.5094 27.4434C24.6845 29.1408 23.4843 30.6283 21.9996 31.7932C20.5152 30.6281 19.3153 29.1405 18.4907 27.4431C17.6662 25.7457 17.2386 23.883 17.2402 21.9959C17.2386 20.1088 17.6662 18.2461 18.4907 16.5487C19.3153 14.8513 20.5152 13.3637 21.9996 12.1986H22.0014ZM20.4064 11.1316C18.8355 12.473 17.5745 14.1395 16.7107 16.0159C15.8469 17.8923 15.4008 19.9339 15.4032 21.9996C15.401 24.0645 15.847 26.1054 16.7105 27.9811C17.574 29.8569 18.8344 31.5228 20.4046 32.8639C18.5078 33.9287 16.3653 34.4785 14.1902 34.4587C12.0151 34.4389 9.88299 33.8501 8.00593 32.7509C6.12886 31.6517 4.57218 30.0803 3.49061 28.193C2.40905 26.3058 1.84027 24.1683 1.84082 21.993C1.84137 19.8178 2.41123 17.6806 3.49375 15.7939C4.57627 13.9072 6.13375 12.3366 8.01137 11.2383C9.88899 10.1401 12.0214 9.5524 14.1965 9.53367C16.3716 9.51493 18.5138 10.0658 20.4101 11.1316H20.4064ZM23.6001 32.8639C25.1702 31.5228 26.4305 29.8568 27.294 27.9811C28.1575 26.1053 28.6035 24.0645 28.6014 21.9996C28.6036 19.9337 28.1572 17.8921 27.2931 16.0156C26.4289 14.1392 25.1677 12.4728 23.5964 11.1316C25.4927 10.0658 27.6348 9.51493 29.81 9.53367C31.9851 9.5524 34.1175 10.1401 35.9951 11.2383C37.8727 12.3366 39.4302 13.9072 40.5127 15.7939C41.5952 17.6806 42.1651 19.8178 42.1657 21.993C42.1662 24.1683 41.5974 26.3058 40.5159 28.193C39.4343 30.0803 37.8776 31.6517 36.0006 32.7509C34.1235 33.8501 31.9914 34.4389 29.8163 34.4587C27.6411 34.4785 25.4969 33.9287 23.6001 32.8639Z" fill="#797979"/>
</svg>
