<svg width="38" height="30" viewBox="0 0 38 30" fill="none" xmlns="http://www.w3.org/2000/svg">
<path d="M9.368 26.944C8.488 28.088 7.564 28.748 6.596 28.924C5.628 29.012 4.792 28.836 4.088 28.396C3.384 27.868 2.988 27.12 2.9 26.152C2.9 25.184 3.34 24.128 4.22 22.984C5.628 21.136 6.596 19.288 7.124 17.44C7.652 15.504 7.916 13.788 7.916 12.292L8.444 14.932C6.156 14.932 4.308 14.272 2.9 12.952C1.58 11.544 0.92 9.78399 0.92 7.67199C0.92 5.472 1.536 3.712 2.768 2.392C4.088 1.072 5.804 0.411993 7.916 0.411993C10.204 0.411993 12.008 1.20399 13.328 2.78799C14.648 4.284 15.308 6.484 15.308 9.388C15.308 11.236 15.132 13.172 14.78 15.196C14.428 17.132 13.812 19.112 12.932 21.136C12.052 23.16 10.864 25.096 9.368 26.944ZM31.28 26.944C30.4 28.088 29.476 28.748 28.508 28.924C27.54 29.012 26.704 28.836 26 28.396C25.296 27.868 24.9 27.12 24.812 26.152C24.812 25.184 25.252 24.128 26.132 22.984C27.54 21.136 28.508 19.288 29.036 17.44C29.564 15.504 29.828 13.788 29.828 12.292L30.356 14.932C28.068 14.932 26.22 14.272 24.812 12.952C23.492 11.544 22.832 9.78399 22.832 7.67199C22.832 5.472 23.448 3.712 24.68 2.392C26 1.072 27.716 0.411993 29.828 0.411993C32.116 0.411993 33.92 1.20399 35.24 2.78799C36.56 4.284 37.22 6.484 37.22 9.388C37.22 11.236 37.044 13.172 36.692 15.196C36.34 17.132 35.724 19.112 34.844 21.136C33.964 23.16 32.776 25.096 31.28 26.944Z" fill="#ADADAD"/>
</svg>
