<svg width="29" height="40" viewBox="0 0 29 40" fill="none" xmlns="http://www.w3.org/2000/svg">
<g clip-path="url(#clip0_1_282)">
<path d="M24.65 0H4.35C1.94844 0 0 1.67969 0 3.75V36.25C0 38.3203 1.94844 40 4.35 40H24.65C27.0516 40 29 38.3203 29 36.25V3.75C29 1.67969 27.0516 0 24.65 0ZM14.5 37.5C12.8959 37.5 11.6 36.3828 11.6 35C11.6 33.6172 12.8959 32.5 14.5 32.5C16.1041 32.5 17.4 33.6172 17.4 35C17.4 36.3828 16.1041 37.5 14.5 37.5Z" fill="#797979"/>
</g>
<defs>
<clipPath id="clip0_1_282">
<rect width="29" height="40" fill="white"/>
</clipPath>
</defs>
</svg>
