<svg width="63" height="69" viewBox="0 0 63 69" fill="none" xmlns="http://www.w3.org/2000/svg">
<path d="M30.2615 0.719025C28.8777 1.55026 27.0933 4.44152 26.2921 7.18822C25.9644 8.2363 25.6002 10.6216 25.4546 12.4286L25.2361 15.7174L23.7795 13.0069C21.0847 7.94717 16.7512 4.58608 13.7651 5.23662C12.3449 5.56189 10.2328 7.94717 9.90504 9.57351C9.32239 12.7539 10.6698 17.0546 14.02 22.548C15.0761 24.3189 15.9136 25.8368 15.8408 25.9091C15.768 25.9814 14.9668 25.6923 14.0929 25.3309C11.8351 24.3189 7.90218 23.7407 5.57157 24.0298C0.728269 24.6081 -1.31101 28.439 0.873932 32.812C2.65831 36.3899 6.73687 39.1005 12.1264 40.2931C13.146 40.51 13.0732 40.6184 9.94146 42.2086C5.53515 44.4855 2.07565 47.8104 1.23809 50.5571C0.182033 54.1712 1.60225 56.5203 5.6444 57.6768C9.35881 58.7611 14.0929 57.3516 17.5888 54.1712C18.4992 53.3399 19.3003 52.7256 19.4096 52.834C19.4824 52.9063 19.3003 53.7736 18.9726 54.7494C18.6084 55.9059 18.3899 57.966 18.3535 60.3512C18.3171 64.8327 19.0818 67.0734 21.1211 68.3022C24.5806 70.3622 28.4771 67.724 30.1522 62.1944C30.7349 60.279 31.5724 54.8217 31.6088 52.9424C31.6088 52.7256 32.6649 54.6772 33.9759 57.2793C36.5614 62.4474 38.5643 65.0495 40.7856 66.1699C44.4636 68.0131 47.8867 64.9773 48.2873 59.5923C48.6514 54.4242 47.0127 50.9908 41.6596 45.7142L37.9816 42.064L45.6289 42.1002C52.6936 42.1002 53.4583 42.0279 55.7161 41.2689C60.2681 39.7149 62.9628 36.932 62.9992 33.7878C63.0721 29.3064 57.901 27.2463 50.5815 28.8727C48.6878 29.2702 47.0856 29.5593 47.0127 29.5232C46.9763 29.4509 47.741 28.8004 48.7243 28.0414C51.4554 25.9814 54.9149 22.1143 55.8618 20.0905C56.9906 17.669 57.0635 14.5609 55.971 12.6455C54.8421 10.6577 52.9849 9.75421 50.0352 9.75421C46.7942 9.75421 44.9006 10.6939 42.2423 13.549L40.1301 15.8259L40.0937 12.5009C39.9845 3.86327 34.9591 -2.13609 30.2615 0.719025Z" fill="#797B5F"/>
</svg>
