<svg width="20" height="20" viewBox="0 0 20 20" fill="none" xmlns="http://www.w3.org/2000/svg">
<path d="M9.83268 2.43652C5.46743 2.43652 1.91602 5.98794 1.91602 10.3532V13.6331C1.91602 14.4437 2.62614 15.1032 3.49935 15.1032H4.29102C4.50098 15.1032 4.70234 15.0198 4.85081 14.8713C4.99927 14.7228 5.08268 14.5215 5.08268 14.3115V10.24C5.08268 10.03 4.99927 9.82865 4.85081 9.68019C4.70234 9.53172 4.50098 9.44832 4.29102 9.44832H3.57218C4.01235 6.38457 6.6486 4.01986 9.83268 4.01986C13.0168 4.01986 15.653 6.38457 16.0932 9.44832H15.3743C15.1644 9.44832 14.963 9.53172 14.8146 9.68019C14.6661 9.82865 14.5827 10.03 14.5827 10.24V15.1032C14.5827 15.9764 13.8726 16.6865 12.9993 16.6865H11.416V15.8949H8.24935V18.2699H12.9993C14.7458 18.2699 16.166 16.8496 16.166 15.1032C17.0392 15.1032 17.7493 14.4437 17.7493 13.6331V10.3532C17.7493 5.98794 14.1979 2.43652 9.83268 2.43652Z" fill="#545454"/>
</svg>
