<svg width="44" height="44" viewBox="0 0 44 44" fill="none" xmlns="http://www.w3.org/2000/svg">
<path d="M18.2047 23.815C18.3881 23.815 22.6414 23.9983 25.1714 23.375H25.1897C28.1047 22.66 32.1564 20.6067 33.2014 13.8967C33.2014 13.8967 35.5297 5.5 23.9797 5.5H14.0614C13.1631 5.5 12.393 6.16 12.2464 7.04L8.02972 33.7333C7.93805 34.2833 8.37805 34.7967 8.92805 34.7967H15.2164L16.7564 25.0433C16.8664 24.3467 17.4714 23.815 18.2047 23.815Z" fill="#797979"/>
<path d="M34.8152 15.1992C33.3302 22.0376 28.6552 25.6492 21.2118 25.6492H18.5168L16.6285 37.6026C16.5552 38.0792 16.9218 38.5009 17.3985 38.5009H20.8818C21.5052 38.5009 22.0552 38.0426 22.1468 37.4192C22.2935 36.6859 23.1002 31.3326 23.2652 30.4159C23.3568 29.7926 23.9068 29.3342 24.5302 29.3342H25.3368C30.5068 29.3342 34.5585 27.2259 35.7502 21.1576C36.2268 18.7009 35.9702 16.6842 34.8152 15.1992Z" fill="#797979"/>
</svg>
